<svg xmlns="http://www.w3.org/2000/svg" viewBox="0 0 100 100">
  <!-- Amazon "a" letterform -->
  <path d="M57.2,44.8c0,3.2,0.1,5.9-1.5,8.7c-1.3,2.3-3.4,3.8-5.7,3.8c-3.2,0-5-2.4-5-6c0-7,6.3-8.3,12.2-8.3V44.8z M65.4,66.8 c-0.5,0.5-1.3,0.5-1.9,0.2c-2.7-2.2-3.1-3.3-4.6-5.4c-4.4,4.5-7.5,5.8-13.2,5.8c-6.7,0-12-4.2-12-12.5c0-6.5,3.5-10.9,8.5-13.1 c4.4-1.9,10.5-2.2,15.2-2.8v-1c0-1.9,0.1-4.1-1-5.7c-0.9-1.4-2.7-2-4.3-2c-2.9,0-5.5,1.5-6.1,4.6c-0.1,0.7-0.6,1.3-1.3,1.4 l-7.2-0.8c-0.6-0.1-1.3-0.7-1.1-1.7C38.6,25.1,47,22.5,54.6,22.5c3.9,0,8.9,1,12,4c3.9,3.7,3.5,8.6,3.5,14v12.7 c0,3.8,1.6,5.5,3.1,7.5c0.5,0.7,0.6,1.6,0,2.1C71,64.8,67.4,68,65.4,66.8L65.4,66.8z" fill="#333"/>
  <!-- Amazon smile/arrow -->
  <path d="M72.1,78.1c-13.3,9.8-32.6,15-49.2,15C11.3,93.1,1,87.5,1,87.5c-0.5-0.4,0-0.9,0.6-0.6 c6.7,3.9,22.1,12.6,43.5,5.1c3.2-1.1,6.8-2.9,10.6-5.2C56.4,86.4,57.2,87,72.1,78.1z" fill="#f90"/>
  <path d="M76.3,73.3c-0.7-0.9-4.8-0.4-6.6-0.2c-0.6,0.1-0.6-0.4-0.1-0.8c3.2-2.3,8.5-1.6,9.2-0.9 c0.6,0.8-0.2,6.2-3.2,8.8c-0.5,0.4-0.9,0.2-0.7-0.3C75.5,78.3,77,74.2,76.3,73.3z" fill="#f90"/>
</svg>